<?xml version="1.0" encoding="utf-8"?>
<!-- Generator: Adobe Illustrator 17.0.0, SVG Export Plug-In . SVG Version: 6.00 Build 0)  -->
<!DOCTYPE svg PUBLIC "-//W3C//DTD SVG 1.1//EN" "http://www.w3.org/Graphics/SVG/1.1/DTD/svg11.dtd" [
	<!ENTITY ns_flows "http://ns.adobe.com/Flows/1.0/">
	<!ENTITY ns_extend "http://ns.adobe.com/Extensibility/1.0/">
	<!ENTITY ns_ai "http://ns.adobe.com/AdobeIllustrator/10.0/">
	<!ENTITY ns_graphs "http://ns.adobe.com/Graphs/1.0/">
	<!ENTITY ns_vars "http://ns.adobe.com/Variables/1.0/">
	<!ENTITY ns_imrep "http://ns.adobe.com/ImageReplacement/1.0/">
	<!ENTITY ns_sfw "http://ns.adobe.com/SaveForWeb/1.0/">
	<!ENTITY ns_custom "http://ns.adobe.com/GenericCustomNamespace/1.0/">
	<!ENTITY ns_adobe_xpath "http://ns.adobe.com/XPath/1.0/">
]>
<svg version="1.1" id="Layer_1" xmlns:x="&ns_extend;" xmlns:i="&ns_ai;" xmlns:graph="&ns_graphs;"
	 xmlns="http://www.w3.org/2000/svg" xmlns:xlink="http://www.w3.org/1999/xlink" xmlns:a="http://ns.adobe.com/AdobeSVGViewerExtensions/3.0/"
	 x="0px" y="0px" width="2047.7px" height="2048px" viewBox="0 0 2047.7 2048" style="enable-background:new 0 0 2047.7 2048;"
	 xml:space="preserve">
<style type="text/css">
	.st0{fill:#CEA7FC;}
	.st1{fill:#F9724E;}
	.st2{fill:#FFD2D2;}
	.st3{fill:#FFFFFF;}
	.st4{fill:#D1A9FF;}
	.st5{fill:#FFD35C;}
	.st6{fill:#262521;}
	.st7{fill:#FFFFFF;stroke:#000000;stroke-width:3;stroke-miterlimit:10;}
	.st8{fill:#FE744F;}
	.st9{fill:#1D1D1B;}
	.st10{fill:#FFE497;}
	.st11{fill:#61C0FF;}
	.st12{fill:#FFFFFF;stroke:#000000;stroke-width:6;stroke-miterlimit:10;}
	.st13{fill:#D0A8FE;}
	.st14{fill:#C8ECD9;}
	.st15{stroke:#000000;stroke-width:5;stroke-linecap:round;stroke-linejoin:round;stroke-miterlimit:10;}
</style>
<metadata>
	<sfw  xmlns="&ns_sfw;">
		<slices></slices>
		<sliceSourceBounds  width="16383" height="16383" y="-7935" x="-7936" bottomLeftOrigin="true"></sliceSourceBounds>
	</sfw>
</metadata>
<g>
	<ellipse class="st0" cx="1059.8" cy="1826" rx="812" ry="102"/>
	<g>
		<g>
			<g>
				<path class="st1" d="M422.2,287.4c0,0-106.8,0.4-76.5,133.3c33.4,146.6,255.6,234.3,86.4,425.9c0,0,156.3-4.4,222-36.3
					c65.7-31.8-11.4-464.3-11.4-464.3l-103.9-67.6L422.2,287.4z"/>
			</g>
		</g>
		<path class="st2" d="M474,283c0,0,937.9-161,977.4,155.4s-169.4,792.4,104.5,1114.4c111,130.5-766.4,291.1-885,206.3
			C222.3,1438.7,750.8,413,474,283z"/>
	</g>
	<g>
		<rect x="643.8" y="413" class="st3" width="672.2" height="240.5"/>
	</g>
	<g>
		<g>
			<rect x="639.1" y="723.6" class="st4" width="182.7" height="182.7"/>
		</g>
	</g>
	<g>
		<g>
			<rect x="639.1" y="1007.5" class="st4" width="182.7" height="182.7"/>
		</g>
	</g>
	<g>
		<g>
			<rect x="639.1" y="1291.4" class="st5" width="182.7" height="182.7"/>
		</g>
	</g>
	<g>
		<polygon class="st3" points="720.8,1443.7 665.4,1373.8 682.9,1359.9 720.5,1407.4 777.9,1333.1 795.6,1346.8 		"/>
	</g>
	<g>
		<g>
			<path class="st1" d="M1382.6,766.4c-0.1,4.7-0.9,9.4-2.4,14.1c-13,41.9-75.5,82.5-75.5,82.5s-62.5-40.6-75.6-82.5
				c-1.5-4.7-2.3-9.4-2.4-14.1c0-23.7,19.2-42.9,42.9-42.9c14.4,0,27.2,7.1,35,18c7.8-10.9,20.5-18,35-18
				C1363.4,723.4,1382.6,742.7,1382.6,766.4z"/>
		</g>
	</g>
	<g>
		<g>
			<g>
				<rect x="870.8" y="780.1" class="st6" width="214.3" height="6.5"/>
			</g>
			<g>
				<rect x="870.8" y="845.1" class="st6" width="320.6" height="6.5"/>
			</g>
		</g>
	</g>
	<g>
		<g>
			<g>
				<rect x="866.8" y="1057.8" class="st6" width="206" height="6.5"/>
			</g>
			<g>
				<rect x="866.8" y="1122.5" class="st6" width="362.4" height="6.5"/>
			</g>
		</g>
	</g>
	<g>
		<g>
			<g>
				<rect x="866.8" y="1343.8" class="st6" width="206" height="6.5"/>
			</g>
			<g>
				<rect x="866.8" y="1408.5" class="st6" width="362.4" height="6.5"/>
			</g>
		</g>
	</g>
	<path class="st7" d="M1639.9,990.4c0,0-164-39.3-226.3,59.3c-62.2,98.6-25.6,200.2-25.6,200.2l94.1,6.3c0,0-27.5-174.4,69.8-175"/>
	<g id="XMLID_1_">
		<g>
			<path class="st8" d="M1574.6,1776.1c-0.1,2.6-2.9,4.6-6.3,4.6c-83.2,0.3-85.7,2-86-4.3c-25.5-486.1-24.8-454.7-22.6-467
				c6.4-35.6,20-85.6,33.9-107.7c58.3,0.3,125.1-0.6,184-2.3c16.3,22.3,34.5,73.1,42.5,107.9c3.6,15.5-13.6,470.2-13.5,468
				c-0.1,2.6-2.9,4.6-6.3,4.6c-82.7,0.6-85.3,2.3-85.6-4l-22.9-416.5C1589.7,1347,1574.5,1778.3,1574.6,1776.1z"/>
		</g>
	</g>
	<path class="st9" d="M1549.6,1792c0,0,20.4,22,13.6,31.5s-106.3,26-108.6,17.2C1452.4,1831.9,1546,1785.6,1549.6,1792z"/>
	<path class="st9" d="M1637.1,1788.9c0,0-21.5,23.2-14.3,33.3s112.2,27.4,114.6,18.1S1641,1782.1,1637.1,1788.9z"/>
	<path class="st7" d="M1527.1,985.6c0,0-89.7,32.7-115,321.9c-14.2,162.1,21.3,188.5,21.3,188.5s195,57.1,314.9-16
		c0,0,49.3-477.2-135.6-496.2"/>
	<path class="st3" d="M1640.5,971.8"/>
	<g>
		<g>
			<g>
				<g>
					
						<rect x="1315.7" y="1160.8" transform="matrix(-0.4875 0.8731 -0.8731 -0.4875 3037.5764 613.6891)" class="st6" width="46" height="75.2"/>
					<path class="st6" d="M1686.6,1404.1l9.8-17.6c5.9-10.5,2.1-24-8.5-29.9l-302-168.6c-10.5-5.9-24-2.1-29.9,8.5l-9.8,17.6
						c-5.9,10.5-2.1,24,8.5,29.9l302,168.6C1667.3,1418.5,1680.7,1414.7,1686.6,1404.1z"/>
					<path class="st6" d="M1247.7,931.5c-91-50.8-205.9-18.2-256.7,72.8c-50.8,91-18.2,205.9,72.8,256.7
						c91,50.8,205.9,18.2,256.7-72.8C1371.3,1097.2,1338.7,982.3,1247.7,931.5z M1074.7,1241.5c-80.2-44.8-109-146.1-64.2-226.4
						c44.8-80.2,146.1-109,226.4-64.2c80.2,44.8,109,146.1,64.2,226.4C1256.3,1257.6,1154.9,1286.3,1074.7,1241.5z"/>
				</g>
			</g>
		</g>
	</g>
	<path class="st10" d="M1774.8,1205.4l-81.5,26.6c0,0-14.7,47.5-36.1,68.1c-10.4-1.7-30.5,9.5-39.8,9.9c-4.7,0.2-20.3,1.8-20.9,6.5
		c-0.5,4.1,12.5,8.7,19,10.1c-25,18.6-53.3,56.8,1.8,21.6c0,0,0,0.1,0.1,0.1c-5.3,4.1-34.5,26.7-26.4,31.5
		c7.1,4.2,28.6-11.1,37.4-17.7c0.1,0.1,0.1,0.1,0.2,0.2c-8.3,7.5-27.8,26-19.8,27.8c10.1,2.3,34.2-14,34.2-14s-30.3,21.5-18.9,25.5
		c7.7,2.8,29.7-18.4,37.6-25.4c1.2-1,2.1-2,2.8-3.1c13.5-13.8,20.9-25.3,22.6-28.1c9.7-4.9,21.4-13.9,33.8-29.4
		C1747,1282.7,1783.2,1232.6,1774.8,1205.4z"/>
	<path class="st7" d="M1647.1,994c0,0,156.8,58.4,154.7,175c-2.2,116.6-88.5,181.4-88.5,181.4l-82-46.4c0,0,118.8-130.6,37.8-184.6"
		/>
	<path class="st10" d="M1618.4,833.7c-27.5-13.6-90.9-15.2-118.8-2.4c-35.8,11.5-60.1,57.1-45.9,95.6c19,53.4,77.4,49.1,120,42
		c35.7-5.1,76.4-15.4,83.9-59.5C1663.1,878,1644.9,846.2,1618.4,833.7z"/>
	<path class="st10" d="M1645.7,887.6c0,0,34.2-60.6,58.5-31s-35.9,68.5-54.4,70.8"/>
	<g>
		<path class="st9" d="M1659.2,897.7c3.1-3.3,6.6-6.4,10.2-9.1c6.6-5,14.6-9.7,23.1-9.9c0.9,0,0.9-1.4,0-1.4
			c-8.5,0.2-16.2,4.5-22.9,9.4c-4,3-7.9,6.3-11.3,10C1657.6,897.4,1658.6,898.4,1659.2,897.7L1659.2,897.7z"/>
	</g>
	<g>
		<g>
			<path class="st9" d="M1486.3,861.2c6.9-4.4,16.1-8.5,24.4-6.9c2.5,0.5,3.6-3.4,1.1-3.9c-9.4-1.9-19.6,2.2-27.4,7.3
				C1482.1,859.2,1484.1,862.7,1486.3,861.2L1486.3,861.2z"/>
		</g>
	</g>
	<g>
		<g>
			<path class="st9" d="M1572.7,852.5c8.2,0.4,18,2.6,23.6,8.8c1.7,1.9,4.6-0.9,2.8-2.8c-6.4-7-17.3-9.5-26.5-10
				C1570.1,848.3,1570.1,852.3,1572.7,852.5L1572.7,852.5z"/>
		</g>
	</g>
	<g>
		<path class="st9" d="M1501.3,864.2l-0.8,0.6c-2.6,3-4.4,21.3,1.4,20.6C1508.6,884.4,1508.7,862.1,1501.3,864.2z"/>
	</g>
	<g>
		<path class="st9" d="M1577.6,865.6l-0.8,0.6c-2.6,3-4.4,21.3,1.4,20.6C1585,885.7,1585.1,863.5,1577.6,865.6z"/>
	</g>
	<path class="st10" d="M1520.5,963.6c0,0-8.3,77.3,51.9,143.8c0,0,50.9-75.3,41.5-151"/>
	<path class="st9" d="M1495.6,917.2c0,0,38.6,11.4,77.2-0.8c0,0-13.7,26.8-36.3,28.6C1513.9,946.8,1495.6,917.2,1495.6,917.2z"/>
	<path class="st11" d="M1640.9,1042.8l-28.1,28.5l22.3,28.9c0,0-17.4,44.8-26.6,71.8c-9.2,26.8-13.1,103.2-13.1,103.2
		c-16.1-99.5-7.9-155.7-5.5-192.6c3-45.8,23.2-95.8,24.4-98.9l0-0.2c0,0,0-1.9,1.6-2.2s13.3,1.7,14.6,3.1c0.1,0.2,0.4,1.1,0.7,2.5
		C1633.8,998.2,1640.9,1042.8,1640.9,1042.8z"/>
	<path class="st11" d="M1521,990.8c0,0-6,52.5-5.4,86.4c0.3,19.2,4.9,89.7,8.7,147.3c-1.4-5.6-13-51.1-17.7-69.8
		c-5.1-20-21.3-72.5-21.3-72.5l16-27l-16.9-20.7c0,0,17.1-33.3,22.2-42.8c0.8-1.4,1.9-4.7,2.1-4.8c1-1.2,10.1-2.6,11.8-2.4
		C1520.7,985.9,1521,990.8,1521,990.8z"/>
	<g>
		<g>
			<g>
				<path d="M1649.9,1123.1c13.2-62.5-2.6-98.9-10.9-119.6c-7.9-19.7-8.5-19.5-8.5-19.5c1.8,1.5,47,34,24.5,140.2L1649.9,1123.1z"/>
			</g>
		</g>
		<g>
			<circle class="st7" cx="1645.8" cy="1151.8" r="31"/>
		</g>
	</g>
	<g>
		<g>
			<g>
				<g>
					<path d="M1479.5,1152.4c17.3-55.9,22.9-100.8-3.6-109.5c-26.9-8.9-49.4,31.9-69,88.5c0,0,0,0,0,0l-1.1,3
						c-3.6,11,1.3,15.7,8.4,19.3c2.6,1.3,5.4,2.4,8,3.4c0.2,1.8,1.4,3.4,3.2,4c2.5,0.8,5.2-0.5,6-3l1.2-3.7c0.8-2.5-0.5-5.2-3-6
						c-2.3-0.7-4.6,0.4-5.7,2.4c-5.9-2.3-12.8-6-13.7-11.2c-0.9-5.1,3.5-13.8,5.7-19.9c17.2-46.7,36.6-79.6,58.5-72.4
						c21.9,7.2,17.8,45.2,3.9,92.8c-1.8,6-3.6,15-7.3,18.7c-3.3,3.3-9.3,3.3-14.9,2.3c0.1-2.3-1.4-4.4-3.8-4.9
						c-2.6-0.5-5.1,1.1-5.6,3.7l-0.8,3.8c-0.5,2.6,1.1,5.1,3.7,5.6c1.9,0.4,3.9-0.5,4.9-2c9,1.6,19.9,1.1,23.3-10.3l1.4-4.4
						C1479.4,1152.5,1479.5,1152.5,1479.5,1152.4z"/>
				</g>
			</g>
			<g>
				<g>
					<polygon points="1475.6,1045.4 1471.2,1043.9 1487.1,995.8 1492.8,991.9 					"/>
				</g>
			</g>
		</g>
	</g>
	<path class="st6" d="M1446.5,861.7c0,0,87,8,148.3-35.3c0,0,19.6,43.4,65.8,53.6c0,0,35.2-62.7-42.3-81.6c0,0-26.2-48.2-109.9-34.9
		C1424.8,776.7,1439.6,862.5,1446.5,861.7z"/>
	<path class="st10" d="M1360.8,1237.4c0,0,1.7-18.6-15.6-23.3c-17.3-4.6-20.7,49.5,28.6,67.3s64.5-8.8,58.2-21.2
		c-6.3-12.4-25.3-1-25.3-1s8.6-13.5,0.9-21.4c-7.7-7.9-26.9,7.6-26.9,7.6s13.4-15.5,5.9-21.5S1363.1,1223,1360.8,1237.4z"/>
	<g>
		<circle class="st12" cx="429.8" cy="1149" r="144.1"/>
		<polygon class="st4" points="515,1161.1 513.5,1127.8 447.8,1130.6 444.9,1064.9 411.6,1066.3 414.5,1132.1 348.7,1134.9 
			350.1,1168.2 415.9,1165.4 418.8,1231.1 452,1229.7 449.2,1163.9 		"/>
	</g>
	<path class="st13" d="M1281.9,574.1l-21.6,14.4c-0.7,0.5-1.7,0.7-2.8,0.6c-1.1-0.1-2-0.6-2.3-1.1l-16.9-31.8l-29.4,61
		c-0.3,0.7-1.5,1.2-2.8,1.2c-0.1,0-0.2,0-0.2,0c-1.4,0-2.6-0.6-2.8-1.4l-32.2-140.1l-30.1,95.7l-0.1,0.3c0,0,0,0-0.1,0.1
		c0,0.2-0.2,0.3-0.3,0.4c-0.2,0.2-0.3,0.3-0.6,0.4c-0.5,0.3-1.2,0.4-1.9,0.4h-110.5l-21.6,14.4c-0.6,0.5-1.7,0.7-2.8,0.6
		c-1.1-0.1-2-0.6-2.3-1.1l-16.9-31.8l-29.4,61c-0.3,0.7-1.5,1.2-2.8,1.2c-0.1,0-0.2,0-0.2,0c-1.4,0-2.6-0.6-2.8-1.4l-32-140.2
		l-30.3,95.8l-0.1,0.3c0,0.1-0.1,0.2-0.2,0.3c0,0.1-0.2,0.2-0.2,0.3c0,0.1-0.2,0.1-0.3,0.2c-0.4,0.3-1.2,0.4-2,0.5
		c-0.1,0-0.1,0-0.2,0h-0.5l-110,0l-21.6,14.4c-0.7,0.5-1.8,0.7-2.9,0.6c-1.1-0.1-2-0.6-2.2-1.1l-17-31.8l-29.3,61
		c-0.4,0.7-1.6,1.2-2.9,1.2c0,0-0.1,0-0.2,0c-1.4,0-2.5-0.6-2.8-1.4l-10.5-43.2l4.9-4.8l9.5,39.4l28.2-58.6c0.3-0.7,1.5-1.2,2.8-1.2
		c1.2,0.1,2.5,0.5,2.8,1.1l18.4,34.4l18.9-12.6c0.6-0.4,1.4-0.6,2.3-0.6l109.4,0l33.3-105.3c0.2-0.8,1.4-1.4,3-1.3
		c1.4,0,2.7,0.6,2.8,1.4l32.5,142.6l28.2-58.5c0.3-0.7,1.5-1.2,2.8-1.2c1.3,0.1,2.4,0.5,2.8,1.1l18.3,34.4l18.9-12.6
		c0.6-0.4,1.4-0.6,2.4-0.6h109.4l33.1-105.4c0.3-0.8,1.3-1.4,3-1.3c1.5,0,2.7,0.6,2.9,1.4l32.7,142.6l28.2-58.5
		c0.3-0.7,1.5-1.2,2.8-1.2c1.6,0.1,2.5,0.5,2.9,1.1l18.3,34.4l18.9-12.6c0.2-0.1,0.5-0.3,0.8-0.3L1281.9,574.1z"/>
	<g>
		
			<rect x="454.3" y="1501" transform="matrix(0.2105 -0.9776 0.9776 0.2105 -1198.1111 1878.8662)" class="st14" width="219.9" height="360.5"/>
		<circle class="st3" cx="489.8" cy="1657" r="58.8"/>
		<line class="st15" x1="454.6" y1="1611.3" x2="530.8" y2="1698.9"/>
		<circle class="st3" cx="643.8" cy="1691.4" r="58.8"/>
		<line class="st15" x1="608.5" y1="1645.7" x2="684.7" y2="1733.3"/>
	</g>
</g>
</svg>
