<?xml version="1.0" encoding="utf-8"?>
<!-- Generator: Adobe Illustrator 25.3.1, SVG Export Plug-In . SVG Version: 6.00 Build 0)  -->
<svg version="1.1" id="Layer_1" xmlns="http://www.w3.org/2000/svg" xmlns:xlink="http://www.w3.org/1999/xlink" x="0px" y="0px"
	 viewBox="0 0 2048 2048" style="enable-background:new 0 0 2048 2048;" xml:space="preserve">
<style type="text/css">
	.st0{clip-path:url(#SVGID_2_);fill:#B0EAF4;}
	.st1{clip-path:url(#SVGID_2_);}
	.st2{fill:#7CCBD8;}
	.st3{clip-path:url(#SVGID_2_);fill:#7CCBD8;}
	.st4{fill:#403E55;}
	.st5{fill:#317BC8;}
	.st6{fill:#24629B;}
	.st7{fill:#F4BDAB;}
	.st8{fill:#293F6E;}
	.st9{fill:#FFCEBB;}
	.st10{fill:#98D6FF;}
	.st11{fill:#E6A895;}
	.st12{fill:#F6F6F6;}
	.st13{fill:#FFFFFF;}
</style>
<g>
	<g>
		<defs>
			<path id="SVGID_1_" d="M1766.11,1052.46c0,218.87-94.75,415.61-245.49,551.44c-33.54,30.23-69.85,57.45-108.52,81.22
				c0,0,0,0-0.01,0c-46.01,28.28-95.33,51.68-147.26,69.48c-75.52,25.9-156.54,39.96-240.83,39.96h-0.45
				c-1.74,0-3.49-0.01-5.23-0.02c-4.45-0.02-8.9-0.1-13.33-0.22c-84.61-2.12-165.71-18.41-240.99-46.58c-2.66-0.98-5.3-2-7.94-3
				c-277.44-107.48-474.17-376.91-474.17-692.27c0-351.21,243.98-645.44,571.69-722.45c27.82-6.53,56.24-11.51,85.18-14.82
				c0-0.01,0.01,0,0.01,0c27.98-3.2,56.4-4.84,85.24-4.84c26.97,0,53.6,1.43,79.82,4.24c26.41,2.82,52.4,7.04,77.89,12.57h0.01
				C1515.82,399.45,1766.11,696.72,1766.11,1052.46z"/>
		</defs>
		<clipPath id="SVGID_2_">
			<use xlink:href="#SVGID_1_"  style="overflow:visible;"/>
		</clipPath>
		<path class="st0" d="M1766.11,1052.46c0,218.87-94.75,415.61-245.49,551.44c-33.54,30.23-69.85,57.45-108.52,81.22c0,0,0,0-0.01,0
			c-46.01,28.28-95.33,51.68-147.26,69.48c-75.52,25.9-156.54,39.96-240.83,39.96h-0.45c-1.74,0-3.49-0.01-5.23-0.02
			c-4.45-0.02-8.9-0.1-13.33-0.22c-84.61-2.12-165.71-18.41-240.99-46.58c-2.66-0.98-5.3-2-7.94-3
			c-277.44-107.48-474.17-376.91-474.17-692.27c0-351.21,243.98-645.44,571.69-722.45c27.82-6.53,56.24-11.51,85.18-14.82
			c0-0.01,0.01,0,0.01,0c27.98-3.2,56.4-4.84,85.24-4.84c26.97,0,53.6,1.43,79.82,4.24c26.41,2.82,52.4,7.04,77.89,12.57h0.01
			C1515.82,399.45,1766.11,696.72,1766.11,1052.46z"/>
		<g class="st1">
			<path class="st2" d="M1304.12,587c4.71-11.13,12.89-23.56,24.89-22.93c13.23,0.69,19.79,16.46,21.76,29.66
				c13.53,90.9-42.35,175.85-64.12,265.04c-1.54,6.31-2.04,14.68,3.74,17.59c18.83-9.86,31.39-28.46,42.16-46.89
				c35.99-61.58,60.72-129.07,90.89-193.76s67.04-128.14,121.58-173.8c13.18-11.04,35.99-19.5,44.77-4.63
				c3.35,5.67,2.87,12.76,1.94,19.29c-5.46,38.08-22.81,73.31-41.95,106.58c-51.6,89.68-117.67,170.1-187.99,245.73
				c-18.85,20.27-39.13,42.65-41,70.4c41.1-8.72,72.28-41.38,101.37-71.88c82.33-86.35,170.89-169.18,276.43-224.22
				c11.94-6.23,27.67-11.68,37.71-2.64c5.7,5.13,7.38,13.44,7.45,21.14c0.42,41.28-33.79,73.36-65.3,99.66
				c-69.83,58.28-141.73,117.17-226.81,148.83c-38.73,14.41-79.91,23.06-115.97,43.31c-2.6,1.46-5.35,3.18-6.42,5.98
				c-2.98,7.77,8.27,12.77,16.51,13.43c52.25,4.16,104.72,8.32,156.99,4.67c21.23-1.48,42.57-4.25,63.71-1.7
				c21.14,2.55,42.59,11.23,55.43,28.37c12.84,17.14,14.27,43.76-0.63,59.05c-19.4,19.9-52.25,12.13-78.44,2.98
				c-75.41-26.35-150.83-52.7-226.24-79.04c-79.09-27.63-46.62-91.12-42.27-156.67C1278.83,722.23,1276.98,651.14,1304.12,587z"/>
		</g>
		<g class="st1">
			<path class="st2" d="M1818.45,1191.74c-2.91-8.67-8.32-18.5-17.27-18.6c-9.86-0.12-15.58,11.52-17.75,21.44
				c-14.9,68.28,22.08,135.43,33.49,204.14c0.81,4.86,0.73,11.24-3.71,13.16c-13.46-8.39-21.8-23.11-28.82-37.61
				c-23.46-48.46-38.22-100.85-57.19-151.38c-18.96-50.53-42.97-100.45-81.05-137.74c-9.21-9.01-25.7-16.54-33.01-5.69
				c-2.79,4.14-2.82,9.54-2.47,14.53c2.03,29.15,13.03,56.71,25.48,82.87c33.55,70.53,78.35,134.73,126.55,195.52
				c12.92,16.29,26.79,34.25,26.7,55.39c-30.07-8.61-51.49-34.9-71.47-59.45c-56.56-69.5-117.93-136.63-193.4-183.51
				c-8.54-5.3-19.94-10.21-27.88-3.84c-4.51,3.61-6.2,9.83-6.67,15.67c-2.51,31.28,21.19,57.29,43.2,78.77
				c48.77,47.6,99.05,95.77,160.56,123.92c28.01,12.82,58.14,21.38,83.85,38.49c1.85,1.23,3.8,2.67,4.45,4.85
				c1.8,6.04-6.82,9.28-12.98,9.38c-39.04,0.61-78.24,1.21-116.88-4.1c-15.69-2.16-31.4-5.3-47.24-4.39s-32.24,6.45-42.69,18.82
				c-10.45,12.37-12.94,32.49-2.68,44.81c13.35,16.04,38.17,11.75,58.12,6.08c57.43-16.31,114.86-32.63,172.3-48.94
				c60.23-17.11,39.5-66.84,39.76-116.77C1830.02,1295.53,1835.19,1241.7,1818.45,1191.74z"/>
		</g>
		<g class="st1">
			<g>
				<path class="st2" d="M751.63,1368.35c-2.23-7.56-5.79-15.27-12.39-19.61c-10.99-7.22-25.53-2.64-37.92,1.77
					c-24.71,8.8-49.93,16.14-75.5,21.95c-8.78,2-20.75,2.23-23.79-6.26c-0.94-2.65-0.67-5.56-0.28-8.35
					c3.73-27.52,15.89-53.57,17.76-81.28c1.87-27.71-11.49-60.11-38.7-65.68c-21.6-4.43-46.37,9.14-64.98-2.71
					c-8.38-5.33-13.28-14.94-15.17-24.69c-3.68-19.1,2.83-38.52,9.13-56.91c6.29-18.41,12.53-37.98,8.34-56.98
					c-4.21-18.98-23.11-36.13-41.89-31.08c-14.84,3.98-30.62,19.88-42.32,9.93c-4.41-3.76-5.71-9.96-6.64-15.69
					c-4.37-27.34-6.49-56.04-20.58-79.89c-14.07-23.84-45.08-40.71-69.88-28.4c-25.78,12.78-30.36,48-24.91,76.27
					c4.88,25.28,16.41,51.16,38.65,64.16c9.2,5.36,20.42,8.83,25.8,18.02c7.29,12.41-0.19,28.43-10.06,38.91
					c-9.87,10.5-22.5,19.15-28.11,32.4c-7.28,17.23-0.15,37.84,12.5,51.63c12.65,13.79,29.91,22.28,46.64,30.61
					c13.64,6.8,29.69,19.59,23.96,33.71c-3.81,9.38-15.12,12.51-24.16,17.07c-23.74,12-36.39,42.89-26.73,67.68
					c10.98,28.22,43.49,41.2,73.29,46.56c14.29,2.59,29.43,4.41,41.14,13.01c11.71,8.6,17.84,26.84,8.4,37.85
					c-5.23,6.09-13.55,8.32-20.38,12.52c-21.84,13.42-24.48,47.07-9.41,67.79c15.07,20.72,42.58,29.36,68.19,28.15
					c28.15-1.33,67.19-1.51,94.37-8.62c30.61-8.02,57.62-46.79,79.63-68c15.26-14.72,30.82-29.82,40.22-48.82
					C756.03,1414.81,758.14,1390.36,751.63,1368.35z M626.15,1544.72c-0.14,0.06-0.28,0.06-0.43,0.06
					c-0.46-0.04-0.87-0.34-1.01-0.82c-4.71-15.59-10.56-30.83-17.2-45.73c-0.2-0.05-0.38-0.13-0.54-0.29
					c-22.97-22.77-57.41-31.79-85.08-39.05c-0.62-0.15-0.99-0.78-0.82-1.4c0.15-0.61,0.78-0.97,1.4-0.82
					c26.63,6.98,59.45,15.61,82.74,36.48c-8.38-18.22-17.89-35.99-27.97-53.42c-0.19-0.1-0.35-0.27-0.44-0.47
					c-0.23-0.45-0.42-0.89-0.63-1.36c-11.23-19.3-23.13-38.22-34.87-56.9c-1.48-2.34-2.96-4.69-4.44-7.05c-0.02,0-0.05,0-0.07,0
					c-0.35-0.02-0.68-0.21-0.9-0.51c-5.55-8.51-14.13-14.82-21.77-19.89c-25.12-16.63-53.97-28.75-83.42-35.05
					c-0.61-0.13-1.02-0.74-0.88-1.37c0.13-0.61,0.75-1,1.37-0.88c29.74,6.36,58.85,18.59,84.2,35.37
					c4.79,3.17,9.92,6.83,14.52,11.21c-9.5-15.2-18.92-30.6-27.82-46.26c-0.02,0-0.03-0.01-0.05,0c-0.49-0.05-0.93-0.39-1.03-0.9
					c-0.13-0.57-0.26-1.14-0.38-1.71c-10.85-19.26-20.92-38.95-29.41-59.26c-0.35-0.05-0.66-0.23-0.85-0.55
					c-4.59-7.98-11.12-14.47-17.49-20.31c-17.44-16-36.9-29.71-57.85-40.73c-0.57-0.3-0.77-1-0.48-1.55
					c0.29-0.57,0.98-0.78,1.53-0.48c21.12,11.12,40.75,24.94,58.34,41.07c4.41,4.05,9.21,8.71,13.32,14.05
					c-5.39-13.7-10.03-27.7-13.67-42.04c-1.75-6.83-3.27-13.86-4.77-20.64c-0.45-2.08-0.92-4.17-1.39-6.28
					c-0.42-0.18-0.73-0.61-0.7-1.09c0.02-0.53,0.07-1.08,0.09-1.61c-2.7-12.03-5.78-24.17-10.34-35.63
					c-0.86-2.17-1.77-4.31-2.73-6.43c-0.02,0-0.04,0.01-0.05,0c-0.32-0.02-0.62-0.17-0.84-0.44
					c-11.94-15.36-28.55-27.52-46.78-34.28c-0.59-0.22-0.89-0.88-0.67-1.48c0.22-0.59,0.88-0.89,1.48-0.67
					c16.81,6.24,31.74,16.51,43.54,29.9c-5.13-10.2-11.14-20.02-17.01-29.61c-1.97-3.21-3.91-6.42-5.85-9.62
					c-5.18-8.63-10.13-17.38-14.89-26.25c-0.02,0-0.05,0-0.07,0c-0.57-0.03-1.01-0.48-1.07-1.05c-0.02-0.42-0.04-0.84-0.08-1.26
					c-13.34-25.13-24.98-51.22-34.74-77.91c-0.23-0.59,0.08-1.25,0.67-1.47c0.61-0.23,1.27,0.08,1.48,0.67
					c9.17,25.03,19.98,49.56,32.31,73.26c-0.58-18.17,2.25-36.63,8.3-53.74c0.2-0.6,0.85-0.92,1.46-0.7c0.6,0.2,0.9,0.85,0.7,1.46
					c-6.5,18.38-9.21,38.32-7.92,57.8c5.04,9.47,10.31,18.81,15.82,28c1.93,3.2,3.89,6.39,5.83,9.6
					c8.45,13.8,17.18,28.05,23.25,43.36c3.79,9.52,6.56,19.48,8.94,29.42c1.91-13.44,6.98-27.79,15.41-43.59
					c5.27-9.92,11.3-19.52,17.95-28.56c0.36-0.52,1.09-0.63,1.6-0.25c0.5,0.36,0.61,1.08,0.25,1.6
					c-6.57,8.95-12.56,18.47-17.79,28.27c-9.66,18.17-14.84,34.34-15.84,49.39c0.66,2.91,1.29,5.8,1.92,8.68
					c1.5,6.77,3.03,13.76,4.75,20.57c9.24,36.32,24.89,70.49,43.06,103.39c-3.99-26.6,1.13-54.57,14.51-77.93
					c0.32-0.55,1.01-0.74,1.56-0.42c0.55,0.32,0.75,1.01,0.44,1.56c-14.23,24.83-18.94,54.95-13.07,82.94
					c12.81,22.69,26.71,44.81,40.44,66.63c9.97,15.84,20.03,31.84,29.7,48.11c-1.28-5.91-1.71-11.91-1.92-17.39
					c-1.13-30.71,3.77-62.16,14.17-91.08l-0.83,0.15c-0.62,0.12-1.22-0.3-1.33-0.92c-0.12-0.62,0.28-1.22,0.9-1.34l2.82-0.52
					c0.41-0.08,0.83,0.06,1.09,0.38c0.26,0.32,0.34,0.75,0.2,1.14c-10.78,29.16-15.88,61.01-14.72,92.09
					c0.33,8.83,1.15,18.08,4.88,26.41c19.71,33.91,37.39,69.08,48.71,106.49C627.09,1543.89,626.75,1544.54,626.15,1544.72z"/>
			</g>
		</g>
		<path class="st3" d="M472.94,1234.73c-0.99-0.29-1.78-1.11-1.97-2.19c-10.65-58.85-1.26-124.94,27.91-196.45
			c19.47-47.73,45.51-93.21,70.69-137.19c7.4-12.94,15.06-26.3,22.43-39.52c31.1-55.8,61.6-116.62,74.04-183.36
			c13.42-71.95,2.34-139.43-31.16-189.99c-0.86-1.29-0.5-3.04,0.79-3.89c1.29-0.86,3.04-0.5,3.89,0.79
			c17.79,26.85,29.42,58.28,34.57,93.45c4.66,31.81,3.77,66.62-2.58,100.67c-12.58,67.53-43.32,128.86-74.64,185.06
			c-7.39,13.24-15.05,26.63-22.46,39.57c-25.08,43.82-51.03,89.13-70.37,136.52c-28.76,70.51-38.04,135.56-27.58,193.33
			c0.28,1.53-0.74,2.99-2.27,3.27C473.79,1234.89,473.34,1234.85,472.94,1234.73z M505.1,1035.4
			c19.73-26.07,48.55-45.11,80.29-53.02c15.65-3.9,31.83-5.14,47.61-8.45c15.78-3.31,31.64-8.96,43.32-20.1
			c5.59-5.35,10.32-12.86,8.7-20.43c-2-9.32-12.44-14.14-21.85-15.61c-23.81-3.72-47.97,4.82-68.92,16.74
			c-35.22,20.02-64.69,50.05-84.05,85.64c-4.28,7.86-8.09,16.06-10.13,24.76 M665.98,859.09c17.6-3.49,36.14-5.94,50.87-16.18
			c5.76-4.01,10.84-9.26,13.64-15.7c2.8-6.44,3.09-14.16-0.19-20.37c-3.25-6.15-9.67-10.22-16.46-11.81
			c-6.78-1.58-13.9-0.92-20.7,0.58c-14.02,3.11-27.02,9.68-39.31,17.11c-25.29,15.32-48.32,34.76-66.43,58.22
			c-3.73,4.83-22.46,25.36-7.3,22.31c12.59-2.53,24.23-13.59,35.9-18.82C631.96,867.3,648.88,862.49,665.98,859.09z M698.29,724.97
			c27.31-14.61,56.75-26.25,80.08-46.59c4.35-3.79,8.79-8.72,8.21-14.46c-0.28-2.78-1.76-5.32-3.6-7.44
			c-9.01-10.26-25.15-10.11-38.2-6.1c-35.82,11.01-60.71,42.78-82.51,73.26c-8.3,11.6-25.75,31.41-25.74,46.26
			c8.78,0.48,19.24-15.63,25.39-20.87C673,739.59,685.46,731.84,698.29,724.97z M708.72,592.18c11.94-13.37,26.11-24.63,41.01-34.57
			c5.14-3.43,10.42-6.75,14.62-11.28c4.19-4.52,7.25-10.5,6.83-16.66c-0.75-10.96-12.61-18.62-23.59-18.09
			c-10.96,0.53-20.71,7.17-28.65,14.75c-18.9,18.04-30.99,42.4-37.28,67.76c-3.01,12.11-8.67,31.6-5.48,43.85
			c5.95-1.67,9.47-12,12.25-17.06C694.1,610.58,700.9,600.93,708.72,592.18z M533.89,943.83c0.44,10.37-4.55,21.21-3.4,31.12
			c9.12-24.63,12.02-53.77,13.68-79.91c0.72-11.28,0.73-23.4-5.47-32.85s-20.93-13.99-29.04-6.11c-7.21,7.01-5.36,19.16-0.9,28.18
			c4.66,9.46,11.5,17.68,16.45,26.99C530.53,921.27,533.41,932.51,533.89,943.83z M605.06,848.5
			c12.85-31.98,19.8-67.63,11.28-101.03c-2.06-8.07-5.08-16.06-10.26-22.59c-5.19-6.53-12.77-11.45-21.1-12.03
			s-17.14,3.89-20.38,11.56c-4.61,10.92,2.73,23.01,10.26,32.18c9.74,11.86,20.49,23.09,27.87,36.54
			c7.38,13.47,11.08,29.91,5.61,44.25 M654.26,690.61c1.72,5.22,1.5,13.47,6.95,16.31c5.2-11.39,0.35-32.56-2.47-44.44
			c-3.54-14.96-9.63-29.34-18.05-42.21c-6.24-9.53-14.38-18.7-25.33-21.84c-10.95-3.14-24.89,2.23-27.48,13.33
			c-2.11,9.06,3.68,18.1,10.44,24.48c13.4,12.6,31.45,19.74,43.81,33.38C647.61,675.65,651.72,682.88,654.26,690.61z M670.93,572.85
			c-3.15-11.6-10.56-21.75-19.74-29.49c-9.17-7.75-20.06-13.24-31.28-17.55c-5.88-2.25-11.98-4.22-18.27-4.26
			c-6.28-0.04-12.85,2.11-16.91,6.92c-1.68,1.98-2.91,4.51-2.71,7.11c0.26,3.25,2.75,5.98,5.68,7.44c2.91,1.46,6.23,1.85,9.49,2.18
			c14.88,1.51,30.08,2.18,44.16,7.23s27.22,15.45,31.09,29.9 M621.42,482.63c7.41,4.94,14.4,10.52,20.72,16.8
			c1.86,1.84,5.95,8.31,8.72,8.59c3.83,0.39,1.91-3.96,1.47-7.03c-2.43-16.6-8.11-32.9-17.85-46.65
			c-12.66-17.88-32.58-31.1-54.39-33.19c-2.27-0.21-4.58-0.31-6.8,0.19c-7.53,1.68-12.18,10.22-11.28,17.9
			c0.9,7.68,6.19,14.25,12.48,18.73c6.31,4.48,13.62,7.24,20.69,10.37C604.32,472.37,613.14,477.1,621.42,482.63z"/>
	</g>
	<g>
		<path class="st4" d="M953.29,280.45c-48.92-8.67-86.71,31.52-113.69,66.92c-21.18,27.79-32.61,62.82-35.72,97.29
			c-2.48,27.47-5.18,56.37-3.24,83.94c2.2,31.26,13.82,61.58,17.44,92.75c3.56,30.63,0.46,63.94-9.87,93.13
			c-20.44,57.78-53.04,123.37-9.77,180.39c22.43,29.56,63.91,40.56,98.21,49.63c53.66,14.19,111.79,13.8,166.88,14.89
			c59.12,1.18,120.29,0.54,178.15-12.9c45.86-10.65,87.18-32.68,101.71-79.83c14.78-47.96,8.63-97.83-22.03-138.11
			c-24.58-32.3-55.3-56.83-69.38-95.95c-11.74-32.61-11.09-67.98-9.91-102.06c1.4-40.17-3.09-78.45-15.81-116.82
			c-16.67-50.32-41.79-95.23-86.62-125.67c-35.61-24.18-79.56-33.32-122.09-34.42c-18.31-0.47-38.93-1.07-52.85,11.84
			C959.4,270.38,955.57,278.43,953.29,280.45z"/>
		<path class="st5" d="M1331.04,1505.62c0.22,0.65,0.4,1.29,0.53,1.94C1331.43,1506.91,1331.15,1506.23,1331.04,1505.62z"/>
		<path class="st5" d="M1508.33,1464.58c-3.82,6.37-16.48,9.37-28.05,11.06c-0.48,0.07-0.94,0.13-1.42,0.2
			c-0.74,0.11-1.46,0.21-2.17,0.29c-0.2,0.02-0.4,0.05-0.6,0.07c-0.92,0.11-1.81,0.22-2.68,0.32c-0.88,0.11-1.73,0.2-2.56,0.29
			c-0.42,0.05-0.82,0.09-1.23,0.13c-0.15,0.01-0.28,0.04-0.42,0.05c-0.43,0.05-0.86,0.1-1.28,0.13c-0.26,0.02-0.51,0.05-0.77,0.09
			c-0.32,0.02-0.64,0.06-0.93,0.1c-0.18,0.02-0.38,0.05-0.55,0.06c-0.48,0.05-0.93,0.11-1.37,0.16c-0.02,0-0.05,0.01-0.07,0.01
			c-0.32,0.04-0.61,0.07-0.91,0.11c-0.28,0.04-0.56,0.07-0.83,0.11c-2.46,0.34-4.93,0.7-7.4,1.07c-1.92,0.28-3.86,0.59-5.79,0.89
			c0,0,0,0-0.01,0c-2.21,0.34-4.41,0.7-6.62,1.08c-2.22,0.37-4.43,0.75-6.64,1.13c-2.11,0.37-4.23,0.75-6.35,1.14
			c-1.15,0.21-2.3,0.42-3.44,0.64c-2.22,0.4-4.44,0.82-6.64,1.25c-6.31,1.2-12.6,2.45-18.84,3.73c-2.92,0.6-5.81,1.2-8.7,1.8
			c-0.9,0.18-1.79,0.39-2.68,0.6c-1.78,0.44-3.56,0.92-5.33,1.45c-0.88,0.27-1.78,0.54-2.66,0.82c-0.61,0.2-1.23,0.39-1.85,0.6
			c-1.12,0.37-2.24,0.76-3.37,1.15c-4.14,1.45-8.29,2.99-12.46,4.45c-10.63,3.69-21.39,6.79-32.65,6.02
			c-2.27-6.45-8.94-12.88-10.2-20.64c-1.84-11.28-0.76-23.84-1.19-35.28c-1.8-49.01-4.79-97.67-13.56-146.01
			c-0.63,12.31-4.32,23.92-5.09,36.2c-0.82,13.07-2.17,26.11-4.03,39.07c-3.37,23.57-8.83,46.51-15.08,69.45
			c-5.26,19.3-4.66,41.12-6.08,61.34c-0.05,0.72-0.1,1.43-0.16,2.15c-3.71,47.7-6.74,95.47-8.64,143.28
			c-1.31,33.14-2.08,66.28-2.16,99.45c-75.52,25.9-156.54,39.96-240.83,39.96h-0.45c-1.74,0-3.49-0.01-5.23-0.02
			c-4.45-0.02-8.9-0.1-13.33-0.22c-84.61-2.12-165.71-18.41-240.99-46.58c-2.66-0.98-5.3-2-7.94-3c0.15-7.75,0.31-15.5,0.49-23.23
			c0.53-22.7,1.16-45.4,1.9-68.09c0.89-27.78,1.92-55.56,3.08-83.39c0.7-16.83,1.74-33.58,3.02-50.27
			c3.86-50.86,9.77-101.26,13.94-152.18c-11.11,38.86-42.22,73.71-49.06,113.41c-10.65,0.88-21.83-3.32-32.25-5.54
			c-0.01,0-0.01,0-0.01,0c-0.37-0.09-0.72-0.16-1.08-0.23c-3.41-0.69-6.79-1.42-10.15-2.21c-25.51-5.9-49.74-14.16-74.9-22.21
			c-17.49-5.59-34.55-12.1-51.38-19.27c-6.74-2.88-13.45-5.86-20.14-8.92c-3.35-1.53-13.12-3.8-14.63-8.39
			c-2.17-6.58,7.8-26.2,9.92-32.43c7.82-23.12,15.94-46.82,21.71-70.58c13.09-53.96,23.61-107.59,37.89-160.28
			c7.97-29.46,17.13-58.64,28.58-87.41c3.4-8.53,6.99-17.03,10.81-25.49c14.39-31.82,31.51-57.21,62.99-72.67
			c40.28-19.81,82.05-35.1,124.2-49.8c15.18-5.3,30.4-10.52,45.63-15.84c2.16-0.76,4.32-1.48,6.5-2.16
			c1.13-0.36,2.27-0.71,3.41-1.05c0.77-0.23,1.53-0.47,2.3-0.69c1.09-0.32,2.19-0.63,3.3-0.93c1.45-0.4,2.91-0.8,4.38-1.18
			c1.73-0.45,3.46-0.88,5.2-1.31c1.39-0.33,2.76-0.66,4.14-0.97c1.54-0.36,3.09-0.7,4.63-1.02c1.3-0.28,2.6-0.55,3.91-0.82
			c1.53-0.29,3.06-0.6,4.6-0.88c1.01-0.2,2.02-0.38,3.04-0.56c3.24-0.59,6.49-1.14,9.75-1.65c1.35-0.22,2.68-0.43,4.03-0.63
			c0.92-0.13,1.84-0.27,2.75-0.4c1.64-0.25,3.29-0.48,4.94-0.7c2.05-0.28,4.09-0.56,6.14-0.82c1.85-0.25,3.71-0.48,5.57-0.7
			c0.74-0.09,1.47-0.18,2.19-0.27c0.5-0.05,0.99-0.11,1.48-0.17c2.18-0.26,4.36-0.51,6.55-0.75c2.67-0.31,5.33-0.6,7.98-0.88
			c2.27-0.25,4.54-0.49,6.79-0.72c0.26-0.02,0.51-0.05,0.77-0.07c2.34-0.25,4.68-0.47,7.02-0.65c1.42-0.12,2.86-0.25,4.29-0.34
			c1.89-0.13,3.78-0.26,5.68-0.37c1.75-0.11,3.51-0.21,5.26-0.28c1.8-0.09,3.6-0.16,5.39-0.22c0.86-0.02,1.7-0.06,2.55-0.07
			c1.3-0.04,2.59-0.07,3.89-0.1c35.06-0.75,70.54,2.17,105.13,4.49c1.5,0.1,3,0.21,4.54,0.33c0.2,0.01,0.39,0.04,0.59,0.05
			c0.69,0.05,1.37,0.11,2.06,0.17c5.79,0.49,11.56,1.12,17.31,1.84c11.9,1.48,23.75,3.42,35.55,5.63c0.04,0,0.07,0.01,0.11,0.02
			c27.69,5.16,55.17,11.82,82.69,17.7c17.11,3.67,34.3,7.36,51.27,11.7c22.08,5.64,43.8,12.39,64.61,21.65
			c6.77,3.02,13.5,6.34,19.05,11.24c26.04,23,31.08,63.07,39.68,94.8c10.57,38.96,20.36,78.13,29.4,117.48
			c18.05,78.69,33.03,158.08,44.86,237.95c1.66,11.18,3.25,22.37,4.78,33.57C1507.6,1443.96,1512.25,1458.01,1508.33,1464.58z"/>
		<path class="st6" d="M1024.19,1022.82l-3.42,449.88l-0.74,96.45l-0.2,25.14l-1.03,135.54l-0.49,64.7
			c1.74,0.01,3.49,0.02,5.23,0.02c0.88-20.82,1.63-43.35,2.27-67.22c1.08-40.98,1.8-85.85,2.26-132.56
			c0.06-6.85,0.12-13.75,0.18-20.69c0.26-32.68,0.39-66.09,0.42-99.52c0.21-195.25-2.95-391.68-4.01-451.72
			C1024.5,1022.84,1024.35,1022.83,1024.19,1022.82z"/>
		<path class="st7" d="M1199.82,900.13c-6.41,27.16-24.44,67.3-31.42,72.76c-19.12,15-38.7,26.53-61.1,35.53
			c-31.44,12.63-59.11,15.71-93.01,13.48c-50.89-3.35-111.92-31.13-130.58-83.14c-0.91-2.54-7.08-25.49-10.61-41.2
			c31.09-9.87,64.79-13.71,97.08-17.11c46.17-4.88,93.86-0.72,139.98,2.37c25.98,1.75,55.9,5.36,80.14,13.59
			C1193.53,897.51,1196.69,898.75,1199.82,900.13z"/>
		<path class="st5" d="M1259.7,1506.93c-5.81,24.17-11.66,48.36-16.56,72.79c-4.46,22.23-8.34,44.54-12.12,66.86
			c-53.81-13.06-107.34-27.19-160.57-42.39c-14.65-4.18-29.41-8.47-44.61-9.61c-28.58-2.15-56.94,6.96-85.59,6.28
			c-32.28-0.78-64.07-14.59-86.66-37.65c-5.14-5.23-9.99-11.06-16.57-14.31c-7.55-3.74-17.09-3.92-22.97-9.97
			c-4.27-4.36-5.5-10.76-8.01-16.33c-6.47-14.45-22.1-24.8-23.71-40.55c-1.07-10.49,4.63-20.53,11.52-28.5
			c15.52-17.92,38.32-29.35,61.96-31.03c15.92-1.13,32.52,1.88,47.48-3.68c5.85-2.18,11.34-5.64,17.55-6.31
			c16.06-1.78,27.29,14.48,38.27,26.33c33.42,36.05,87.91,40.06,136.9,44.24C1151.18,1487.82,1205.43,1497.48,1259.7,1506.93z"/>
		<path class="st7" d="M960.63,762.19c-0.27,5.15,1.46,10.94,2.23,16.07c1.96,13.04,3.83,26.08,5.58,39.15
			c2.15,16.13,2.17,32.48,2.44,48.72c0.13,7.59-0.19,15.2,0.47,22.78c0.31,3.6-0.17,10.17,2.09,13.31
			c5.33,7.43,27.07,6.32,34.87,6.51c20.1,0.51,40.19,0.76,60.28,0.62c12.87-0.08,25.88-0.41,38.68-1.82
			c7.16-0.79,5.78-3.99,6.4-10.58c0.58-6.23,1.51-12.41,2.15-18.63c1.64-15.98,2.34-32.04,2.93-48.08c0.52-13.98,1.6-27.9,2.24-42
			c0.46-10.18,4.3-24.97-8.54-29.32c-18.5-6.27-38.97-6.95-58.29-8.22c-21.72-1.43-43.02-1.61-64.68,0.73
			c-6.75,0.73-16.01,0.71-21.96,4.05C964.89,756.98,958.6,763.5,960.63,762.19z"/>
		<path class="st8" d="M1004.99,1794.31c-84.61-2.12-165.71-18.41-240.99-46.58l-7.45-26.23l-20.66-72.7l-49.97-175.81l-0.77-2.71
			l-90.75-319.36l-29.67-104.37l58.24,16.97l267.79,77.98c-3.16-14.12-5.34-28.47-6.51-42.92c-3.41-42.27,3.38-86.5,18.05-128.21
			c2.65-7.58,5.58-15.05,8.74-22.43c9.87-23,22.13-44.93,36.34-64.96c7.18-10.11,14.86-19.75,22.99-28.8
			c0.23,6.03,0.33,12.08,0.42,18.11c-2.44,2.86-4.92,5.84-7.39,8.89c-11.55,14.26-23,30.13-30.53,44.05
			c-4.36,8.05-8.35,16.3-11.95,24.71c-4.05,9.41-7.63,19.03-10.71,28.78c-17,53.72-19.42,111.96-5.91,166.71l22.97,6.69
			l35.11,290.09l15.07,124.42l3.73,30.81l16.48,136.13L1004.99,1794.31z"/>
		<path class="st7" d="M539.16,1501.01c-5.43,24.19-9.39,51.03,2.93,72.55c11.23,19.62,33.34,30.01,54.52,37.89
			c70.56,26.26,145.53,37.89,219.14,53.74c19.91,4.29,39.9,8.94,58.55,17.14c27.42,12.06,51.21,31.46,78.98,42.69
			c16.25,6.57,34.01,10.23,51.39,7.96c16.86-2.2,32.62-9.87,46.55-19.63c18.88-13.23,35.95-32.93,35.78-55.99
			c-0.05-7.22-1.81-14.31-3.56-21.32c-2.11-8.46-4.22-16.92-6.33-25.38c-1.8-7.23-3.91-14.96-9.62-19.74
			c-8.17-6.85-20.6-5.19-30.03-10.18c-4.65-2.46-8.32-6.42-12.78-9.21c-10.52-6.58-23.83-5.9-36.23-5.32
			c-69.92,3.3-142.11-4.08-204.53-35.75c-22.26-11.3-42.87-25.47-63.53-39.39c-9.13-6.15-18.4-14.05-28.55-18.14
			c-12.52-5.04-25.22-9.67-37.82-14.5c-25.04-9.6-50.12-19.21-75.9-26.61c-4.69-1.35-9.59-2.63-14.41-1.81
			c-11.82,2.02-10.77,17.82-13.4,27.08C546.19,1471.63,542.47,1486.27,539.16,1501.01z"/>
		<path class="st9" d="M1522.61,1641.69c-2.66,18.95-13.68,37.84-31.54,44.72c-9.18,3.53-19.3,3.65-29.13,3.32
			c-39.63-1.31-78.74-9.05-117.52-17.31c-37.92-8.08-75.72-16.7-113.41-25.84c-53.81-13.06-107.34-27.19-160.57-42.39
			c-14.65-4.18-29.41-8.47-44.61-9.61c-28.58-2.15-56.94,6.96-85.59,6.28c-32.28-0.78-64.07-14.59-86.66-37.65
			c-5.14-5.23-9.99-11.06-16.57-14.31c-7.55-3.74-17.09-3.92-22.97-9.97c-4.27-4.36-5.5-10.76-8.01-16.33
			c-6.47-14.45-22.1-24.8-23.71-40.55c-1.07-10.49,4.63-20.53,11.52-28.5c15.52-17.92,38.32-29.35,61.96-31.03
			c15.92-1.13,32.52,1.88,47.48-3.68c5.85-2.18,11.34-5.64,17.55-6.31c16.06-1.78,27.29,14.48,38.27,26.33
			c33.42,36.05,87.91,40.06,136.9,44.24c55.18,4.71,109.42,14.37,163.7,23.82c35.94,6.25,71.91,12.42,108.17,16.98
			c0.76-8.26-2.17-16.23-4.2-24.35c9.45-3.3,18.81-7.09,28.36-9.07c23.11-4.81,47.09-9.49,70.45-12.71
			c4.28-0.6,11.61-1.19,19.22-2.35c13.48,35.87,25.02,72.49,34.55,109.61C1521,1603.57,1525.28,1622.75,1522.61,1641.69z"/>
		<circle class="st8" cx="1067.64" cy="1158.26" r="10.84"/>
		<circle class="st8" cx="1074.57" cy="1357.68" r="10.84"/>
		<path class="st8" d="M1226.5,1381.94c1.21,3.71,2.28,8.56,1.09,12.39c-1.37,4.43-5.63,7.26-10.27,6.3
			c-8.31-1.73-11.72-10.31-12.97-17.81c-0.77-4.62-0.5-9.66,3.75-12.57c1.18-0.81,2.43-1.31,3.7-1.53c1.29-0.54,2.67-0.72,4.06-0.47
			c20.82-35.39,35.12-75.1,37.05-116.36c1.7-36.58-6.18-73.89-25.25-105.38c-8.95-14.76-24.43-33.48-43.94-25.29
			c-15.54,6.52-28.26,22.19-36.92,36.14c-20.22,32.55-24.91,71.5-24.97,109.09c-0.06,35.99,3.75,72.78,18.27,106.02
			c0.8-0.55,1.69-0.98,2.73-1.26c4.32-1.15,8.91,1.09,10.38,5.36c2.21,6.37-0.15,16.65-4.89,21.47c-5.54,5.63-16.07,4.63-18.29-3.76
			c-0.94-3.63-0.36-7.89,1.26-11.67c-19.97-42.64-23.79-91.55-21.11-138.04c2.32-40.16,12.53-81.17,39.83-111.91
			c8.68-9.76,19.91-20.12,32.79-23.99c1.88-80.3-12.43-165.17-67.16-227.23c0.48-5.74,0.86-11.47,1.16-17.22
			c61.92,64.63,80,159.91,78.27,242.93c0.96,0.05,1.91,0.14,2.88,0.27c20.39,2.91,33.5,20.74,42.92,37.45
			c41.45,73.52,25.66,163-16.15,232.47C1225.43,1378.87,1226.02,1380.45,1226.5,1381.94z"/>
		<path class="st10" d="M1270.05,1225.33c-1.92-22.63-6.67-44.89-15.14-65.99c-7.78-19.4-17.27-40.99-35.03-53.27
			c-4.8-3.32-9.9-5.42-15.1-6.51c0.32-9.61,0.36-19.23,0.02-28.85c-0.3-8.71,0.56-20.29-2.85-28.96c-1.1-4.88-4.14-9.33-9.59-10.13
			c-0.1-0.02-0.21-0.03-0.31-0.05c-9.01-1.32-17.69,3.56-17.85,13.59c-0.03,2.11,0.43,4.02,1.23,5.79
			c1.37,17.2,1.71,34.43,1.03,51.67c-6.52,2.61-12.68,6.38-18.09,10.9c-15.95,13.3-28.35,32.66-37.19,51.27
			c-10.71,22.56-16.9,46.53-18.5,71.46c-0.49,7.61,6.83,14.1,14.1,14.1c8.04,0,13.61-6.47,14.1-14.1
			c2.14-33.34,15.06-66.75,36.89-92.19c8.09-9.43,21.98-22.49,34.93-15.51c12.18,6.56,19.36,24.66,24.49,36.95
			c7.91,18.97,12.93,39.36,14.67,59.83c0.64,7.59,6.02,14.1,14.1,14.1C1263.08,1239.42,1270.69,1232.96,1270.05,1225.33z"/>
		<path class="st10" d="M1154.78,1370.02c-2.26-2.1-4.77-2.93-7.19-2.87c-2.83-1.02-6-0.97-8.4,0.87
			c-7.24,5.57-12.69,12.41-13.39,21.87c-0.59,7.99,3.03,17.55,11.57,19.54c10.01,2.34,15.56-6.01,18.55-14.04
			C1159.08,1386.85,1162.64,1377.35,1154.78,1370.02z"/>
		<path class="st10" d="M1231.17,1383.43c-2.43-6.73-5.41-12.99-11.93-16.63c-2.28-1.27-4.52-1.61-6.55-1.29
			c-0.82-0.22-1.67-0.35-2.53-0.35c-5.81,0-10.22,4.77-10.42,10.42c-0.46,12.79,10.36,39.32,27.31,30.36
			c4.21-2.23,6.99-6.65,7.02-11.48C1234.08,1390.64,1232.44,1386.95,1231.17,1383.43z"/>
		<path class="st9" d="M846.15,486.18c-16.14,49.2-12.98,106.39,2.16,155.42c5.73,18.57,14.67,37.5,20.88,56.67
			c7.25,22.39,18.79,47.98,35.61,64.86c17.91,17.97,39.36,30.55,61.52,42.41c32.41,17.35,65.76,28.41,101.92,17.51
			c28.35-8.55,51.51-28.46,70.86-49.78c9.12-10.05,17.83-20.34,25.55-31.53c8.22-11.91,14.68-23.99,21.18-36.78
			c5.46-10.74,9.55-21.6,13.64-32.88c3.6-9.96,7.29-18.85,9.49-29.28c9.81-46.44,11.84-95.63,1.02-142.33
			c-10.58-45.66-35.42-88.03-71.38-118.28c-33.9-28.51-82.62-46.1-126.85-47.87c-84.64-3.39-140.52,78.01-164.97,149.92
			C846.57,484.9,846.36,485.54,846.15,486.18z"/>
		<path class="st4" d="M1096.07,553.55c-6.79,2.87-11.56,10.22-10.17,19.33c2.29,15.03,18.75,22.32,29.39,10.42
			c7.29-8.15,7.43-19.74-1.31-26.78C1108.13,551.81,1101.47,551.27,1096.07,553.55z"/>
		<path class="st9" d="M1209.31,550.25c2.86-8.73,13.33-21.48,22.71-25.56c12.35-5.37,21.79,0.8,28.15,11.55
			c15.58,26.34,4.43,58.97-7.84,84.36c-4.87,10.07-11.98,17.29-21.71,22.59c-5.84,3.18-14.99,8.59-21.88,6.11
			c-15.82-5.71-4.83-47.08-3.49-58.86C1206.77,576.99,1209.29,563.51,1209.31,550.25z"/>
		<path class="st9" d="M831.69,554.73c-5.91-8.06-20.09-8.05-28.65-4.71c-12.44,4.85-16.87,17.57-18.86,29.97
			c-5.25,32.67,26.25,62.22,50.32,79.54c9.36,6.74,24.23,11.98,20.44-4.98c-4.86-21.76-7.32-44.01-10.79-66.12
			C842.33,576.8,840.08,561.34,831.69,554.73z"/>
		<path class="st11" d="M1232.64,601.06c-0.36-2.63-1.58-5.06-2.86-7.39c-4.8-8.79-10.77-17.81-10.19-27.81
			c0.59-10.22,8.99-19.45,19.12-20.99c2.49-0.38,5.16-0.3,7.35,0.94c1.68,0.95,2.92,2.51,3.96,4.14c2.81,4.41,4.33,9.63,4.35,14.86
			c-3.16-4.4-6.97-9.2-12.37-9.78c-5.9-0.63-11.13,4.33-13.31,9.85c-3.66,9.22-0.67,20.65,7.03,26.91c1.65,1.34,3.57,2.56,4.42,4.51
			c1.25,2.85-0.23,6.13-1.99,8.69c-2.08,3.03-5.31,7.79-9.22,8.35C1230.82,609.36,1233.3,605.83,1232.64,601.06z"/>
		<path class="st11" d="M813.34,573.47c6.7-1.08,13.9,2.02,17.71,7.65c4.16,6.14,4.02,14.72,0.19,21.08
			c-2.72,4.53-7.04,7.94-9.7,12.51s-2.99,11.37,1.41,14.29c1.63,1.09,3.63,1.44,5.57,1.77c-5.81,1.54-12.45-0.94-15.84-5.9
			c-3.38-4.96-3.26-12.06,0.29-16.9c2.58-3.51,6.56-5.69,9.63-8.78c3.07-3.09,5.2-8.03,2.92-11.75c-1.97-3.21-6.26-3.99-10.02-4.01
			c-5.5-0.03-10.49,1.42-15.8,2.39C798.77,579.8,808.33,574.28,813.34,573.47z"/>
		<path class="st4" d="M1062.48,504.86c6.27-2.73,12.58-6.85,19.47-9.28c12.34-4.35,25.69-4.54,38.18-0.61
			c12.89,4.06,33.12,17.12,34.81,32.18c-5.04-6.38-8.23-12.69-15.88-16.72c-11.04-5.82-23.82-9.3-36.34-8.9
			c-9.58,0.3-18.61,2.54-27.54,5.93C1071.13,509,1062.58,512.88,1062.48,504.86z"/>
		<path class="st4" d="M944.62,566.91c6.79,2.87,11.56,10.22,10.17,19.33c-2.29,15.03-18.75,22.32-29.39,10.42
			c-7.29-8.15-7.43-19.74,1.31-26.78C932.56,565.16,939.22,564.62,944.62,566.91z"/>
		<path class="st12" d="M1094.21,560.99c-2.71,1.15-4.62,4.09-4.07,7.73c0.92,6.01,7.5,8.93,11.76,4.17
			c2.92-3.26,2.97-7.9-0.52-10.71C1099.04,560.3,1096.37,560.08,1094.21,560.99z"/>
		<path class="st12" d="M934.25,574.35c2.71,1.15,4.62,4.09,4.07,7.73c-0.92,6.01-7.5,8.93-11.76,4.17
			c-2.92-3.26-2.97-7.9,0.52-10.71C929.43,573.65,932.1,573.44,934.25,574.35z"/>
		<path class="st12" d="M1100.35,577.46c-1.09,0.46-1.85,1.63-1.63,3.09c0.37,2.41,3,3.57,4.7,1.67c1.17-1.3,1.19-3.16-0.21-4.28
			C1102.28,577.18,1101.21,577.1,1100.35,577.46z"/>
		<path class="st12" d="M936.99,590.82c1.09,0.46,1.85,1.63,1.63,3.09c-0.37,2.41-3,3.57-4.7,1.67c-1.17-1.3-1.19-3.16,0.21-4.28
			C935.06,590.54,936.13,590.45,936.99,590.82z"/>
		<path class="st4" d="M973.84,513.83c-6.53-2.05-13.23-5.49-20.34-7.19c-12.73-3.03-26.02-1.82-38.04,3.41
			c-12.4,5.39-31.14,20.51-31.24,35.66c4.35-6.87,6.85-13.48,14.04-18.3c10.37-6.95,22.71-11.75,35.21-12.67
			c9.56-0.7,18.77,0.57,28.01,3.01C965.67,518.86,974.58,521.82,973.84,513.83z"/>
		<path class="st11" d="M1005.78,686.67c14.86,0.88,30.74,0.12,45.18-3.14c-1.17,2.45-1.63,4.75-3.94,6.53
			c-3.76,2.9-11.72,5.73-16.23,5.68c-2.93-0.03-5.91-1.01-8.79-1.55c-3.06-0.58-6.26-0.53-9.23-1.34
			C1008.89,691.8,1002.4,689.79,1005.78,686.67z"/>
		<path class="st13" d="M975.46,723.37c0.37,2.99,19.35,2.11,22.09,2.26c14.69,0.79,29.06,0.41,43.54-2.26
			c11.22-2.07,22.24-5.43,33.05-9.04c4.27-1.43,8.4-3.04,12.54-4.8c1.93-0.82,4.36-2.45,6.29-2.88c-0.56,3.41-4.67,6.93-6.87,9.37
			c-5.54,6.14-12.26,11.17-19.55,15.07c-14.8,7.91-32.4,12.48-49.21,11.97c-12.06-0.37-24.37-3.63-34.45-10.32
			C979.64,730.57,978.8,727.39,975.46,723.37z"/>
		<path class="st4" d="M951.13,311.01c-24.82,5.99-48.45,26.6-64.36,45.59c-25.96,30.99-41.36,65.2-52.08,103.86
			c-13.39,48.3-20.5,106.54-1.13,154.38c8.19,20.21,16.47,41.49,26.75,60.67c-8.3-44.44-29.69-97.81-11.21-142.16
			c13.98-33.55,41.32-57.27,65.62-83.35c14.26-15.31,26.4-32.57,35.72-51.23c3.57-7.14,7.74-14.23,10.09-21.91
			c1.23-4.04,1.43-8.43,3.51-12.17c1.37,19.12,9.3,39.11,21.39,53.97c12.65,15.55,28.13,24.04,44.83,34.18
			c-11.61-11.92-17.08-33.58-22.48-48.81c-5.61-15.83-8.58-32.07-13.21-48.1c4.03,14.09,19.44,23.72,30.8,31.31
			c15.04,10.05,29.39,21.49,43.66,32.6c21.85,17.02,44.78,33.09,65.83,51.01c21.31,18.14,38.16,39.11,53.42,62.52
			c8.44,12.95,13.16,28.14,16.88,43.02c2.1,8.4,4.7,16.7,6.34,25.21c0.77,4.02,0.41,9.6,2.46,13.02c2.55-3.07,2.84-7.26,3.41-11.1
			c1.62-10.93,4.92-21.3,7.65-32.04c5.35-21.05,6.79-42.45,4.09-64.03c-5.89-47.13-17.47-99.08-49-135.97
			c-49.92-58.39-134.89-91.02-210.34-68.25c-7.62,2.3-17.2,8.87-24.51,8.82C945.18,311.48,945.1,310.9,951.13,311.01z"/>
	</g>
</g>
</svg>
